<?xml version="1.0" encoding="utf-8"?>
<!-- Generator: Adobe Illustrator 17.0.0, SVG Export Plug-In . SVG Version: 6.00 Build 0)  -->
<!DOCTYPE svg PUBLIC "-//W3C//DTD SVG 1.1//EN" "http://www.w3.org/Graphics/SVG/1.1/DTD/svg11.dtd">
<svg version="1.1" id="Laag_1" xmlns="http://www.w3.org/2000/svg" xmlns:xlink="http://www.w3.org/1999/xlink" x="0px" y="0px"
	 width="231px" height="56px" viewBox="-1.913 28.018 231 56" enable-background="new -1.913 28.018 231 56" xml:space="preserve">
<path fill="#FFFFFF" d="M224.748,63.875c0,0.552-0.448,1-1,1h-31.375c-0.552,0-1-0.448-1-1V33.812c0-0.552,0.448-1,1-1h31.375
	c0.552,0,1,0.448,1,1V63.875z"/>
<g>
	<path fill="#CC2121" d="M27.089,35.824H16.481V69.13h-5.846V35.824H0V30.56h27.089V35.824z"/>
	<path fill="#CC2121" d="M46.153,43.959l-4.18,4.166c-0.635-0.652-1.243-1.12-1.825-1.402c-0.582-0.282-1.341-0.423-2.275-0.423
		c-0.988,0-1.9,0.255-2.738,0.766c-0.838,0.511-1.504,1.229-1.997,2.154c-0.494,0.925-0.741,2.004-0.741,3.237V69.13h-5.529V41.67
		h5.423v2.981c0.723-1.01,1.742-1.817,3.056-2.42c1.313-0.603,2.729-0.904,4.246-0.904c1.358,0,2.553,0.2,3.585,0.598
		C44.208,42.323,45.2,43.002,46.153,43.959z"/>
	<path fill="#CC2121" d="M53.628,36.247h-5.846V30.4h5.846V36.247z M53.47,69.13h-5.529V41.67h5.529V69.13z"/>
	<path fill="#CC2121" d="M82.03,55.373c0,1.729-0.071,3.263-0.212,4.603c-0.142,1.341-0.446,2.637-0.913,3.889
		c-0.468,1.252-1.124,2.302-1.971,3.148c-0.759,0.759-1.72,1.354-2.884,1.786s-2.425,0.648-3.783,0.648
		c-1.517,0-2.862-0.243-4.034-0.728c-1.173-0.485-2.227-1.283-3.161-2.394V80.24h-5.529V41.67h5.423v2.927
		c1.006-1.224,2.077-2.074,3.214-2.553c1.138-0.479,2.482-0.718,4.035-0.718c1.376,0,2.659,0.221,3.849,0.662
		s2.147,1.041,2.87,1.799c0.847,0.846,1.503,1.891,1.971,3.135c0.467,1.244,0.771,2.531,0.913,3.862S82.03,53.645,82.03,55.373z
		 M76.501,55.387c0-1.867-0.142-3.456-0.423-4.768c-0.283-1.312-0.842-2.36-1.68-3.144c-0.838-0.784-2.033-1.175-3.585-1.175
		c-1.57,0-2.778,0.396-3.624,1.189s-1.411,1.841-1.693,3.144s-0.423,2.888-0.423,4.755c0,1.867,0.141,3.456,0.423,4.768
		c0.282,1.312,0.847,2.369,1.693,3.17c0.846,0.802,2.054,1.202,3.624,1.202c2.257,0,3.77-0.805,4.537-2.417
		C76.117,60.498,76.501,58.257,76.501,55.387z"/>
	<path fill="#CC2121" d="M97.574,69.13h-3.413c-2.486,0-4.361-0.718-5.621-2.156c-1.261-1.437-1.891-3.249-1.891-5.436V30.559h5.529
		v30.66c0,1.094,0.22,1.901,0.662,2.421c0.441,0.521,1.208,0.781,2.301,0.781h2.434L97.574,69.13L97.574,69.13z"/>
	<path fill="#CC2121" d="M122.828,56.987h-17.83c0,1.605,0.273,2.976,0.82,4.113c0.546,1.138,1.336,2.02,2.367,2.646
		c1.032,0.626,2.306,0.939,3.823,0.939s2.743-0.212,3.677-0.635c0.935-0.423,1.931-1.146,2.99-2.169l3.518,3.28
		c-1.501,1.499-3.019,2.588-4.556,3.267c-1.536,0.679-3.452,1.019-5.747,1.019c-1.766,0-3.403-0.256-4.913-0.767
		s-2.821-1.323-3.933-2.434c-1.113-1.111-1.978-2.566-2.596-4.365c-0.618-1.799-0.927-3.968-0.927-6.508
		c0-2.945,0.481-5.467,1.444-7.566c0.962-2.098,2.317-3.704,4.065-4.814c1.748-1.111,3.796-1.667,6.145-1.667
		c2.401,0,4.484,0.556,6.25,1.667c1.765,1.111,3.107,2.668,4.026,4.669c0.918,2.002,1.377,4.299,1.377,6.891L122.828,56.987
		L122.828,56.987z M117.352,53.151c-0.053-1.428-0.3-2.672-0.741-3.73c-0.441-1.058-1.133-1.905-2.077-2.54
		s-2.059-0.952-3.347-0.952c-1.27,0-2.386,0.317-3.347,0.952c-0.961,0.635-1.671,1.481-2.129,2.54
		c-0.247,0.565-0.41,1.063-0.489,1.495c-0.079,0.432-0.154,1.177-0.225,2.235H117.352z"/>
	<path fill="#CC2121" d="M144.261,69.13h-5.899V30.56h5.899V69.13z"/>
	<path fill="#CC2121" d="M175.281,35.824h-10.608V69.13h-5.846V35.824h-10.634V30.56h27.089v5.264
		C175.282,35.824,175.281,35.824,175.281,35.824z"/>
</g>
<g>
	<circle fill="#CC2121" cx="215.986" cy="57.481" r="4.872"/>
	<path fill="#CC2121" d="M223.35,30.417h-31.591c-2.115,0-3.825,1.738-3.825,3.886v31.083c0,2.15,1.71,3.886,3.825,3.886h31.591
		c2.115,0,3.825-1.736,3.825-3.886V34.303C227.175,32.155,225.465,30.417,223.35,30.417z M193.697,43.538l8.59-8.591l1.781,1.779
		l-8.59,8.591L193.697,43.538z M197.801,47.698l8.59-8.591l1.781,1.779l-8.59,8.591L197.801,47.698z M201.905,51.863l8.589-8.591
		l1.781,1.779l-8.59,8.591L201.905,51.863z M215.986,64.871c-4.083,0-7.391-3.309-7.391-7.389c0-4.081,3.308-7.392,7.391-7.392
		c4.081,0,7.39,3.311,7.39,7.392C223.376,61.562,220.067,64.871,215.986,64.871z"/>
</g>
<g enable-background="new    ">
	<path fill="#4D4D4D" d="M84.651,132.774v10.757h-1.024v-10.757H84.651z"/>
	<path fill="#4D4D4D" d="M87.648,135.757v1.341h0.03c0.181-0.473,0.502-0.852,0.964-1.138c0.461-0.286,0.969-0.43,1.521-0.43
		c0.542,0,0.997,0.07,1.363,0.211c0.366,0.141,0.66,0.339,0.881,0.596c0.221,0.256,0.376,0.569,0.467,0.941
		c0.091,0.371,0.136,0.788,0.136,1.25v5.002h-0.949v-4.85c0-0.332-0.03-0.641-0.09-0.927c-0.06-0.286-0.166-0.535-0.316-0.746
		s-0.354-0.377-0.61-0.497c-0.256-0.12-0.575-0.181-0.957-0.181s-0.721,0.067-1.017,0.203s-0.547,0.321-0.753,0.558
		s-0.367,0.518-0.482,0.844c-0.116,0.326-0.179,0.681-0.188,1.062v4.535h-0.949v-7.773L87.648,135.757L87.648,135.757z"/>
	<path fill="#4D4D4D" d="M97.892,135.757v0.798H96.31v5.243c0,0.312,0.042,0.555,0.128,0.73c0.085,0.176,0.299,0.273,0.64,0.294
		c0.271,0,0.542-0.015,0.813-0.045v0.798c-0.141,0-0.281,0.005-0.422,0.016c-0.141,0.01-0.281,0.015-0.422,0.015
		c-0.632,0-1.075-0.123-1.326-0.369s-0.372-0.7-0.361-1.363v-5.318h-1.356v-0.798h1.356v-2.335h0.949v2.335h1.583V135.757z"/>
	<path fill="#4D4D4D" d="M99.964,140.962c0.095,0.366,0.249,0.695,0.459,0.986c0.211,0.292,0.477,0.532,0.798,0.724
		c0.321,0.19,0.708,0.286,1.16,0.286c0.693,0,1.235-0.181,1.627-0.543c0.392-0.361,0.663-0.844,0.813-1.446h0.949
		c-0.201,0.885-0.57,1.567-1.107,2.049c-0.537,0.482-1.298,0.724-2.282,0.724c-0.613,0-1.143-0.108-1.589-0.324
		c-0.447-0.216-0.811-0.512-1.092-0.889s-0.49-0.813-0.625-1.311c-0.136-0.497-0.204-1.021-0.204-1.574
		c0-0.513,0.068-1.015,0.204-1.507c0.135-0.492,0.344-0.932,0.625-1.318s0.645-0.697,1.092-0.934
		c0.447-0.236,0.977-0.354,1.589-0.354c0.623,0,1.155,0.126,1.597,0.377c0.441,0.251,0.801,0.58,1.077,0.986
		c0.276,0.407,0.474,0.874,0.595,1.401c0.121,0.527,0.171,1.062,0.151,1.604H99.82C99.821,140.242,99.868,140.595,99.964,140.962z
		 M104.664,138.062c-0.115-0.331-0.278-0.625-0.489-0.881c-0.211-0.257-0.467-0.462-0.769-0.618
		c-0.301-0.155-0.643-0.233-1.024-0.233c-0.392,0-0.738,0.078-1.04,0.233c-0.301,0.156-0.558,0.361-0.768,0.618
		c-0.211,0.256-0.379,0.552-0.505,0.889c-0.126,0.336-0.208,0.681-0.249,1.031h5.032C104.843,138.74,104.78,138.393,104.664,138.062
		z"/>
	<path fill="#4D4D4D" d="M107.956,135.757v1.822h0.03c0.241-0.633,0.615-1.119,1.123-1.461s1.112-0.497,1.815-0.467v0.949
		c-0.432-0.021-0.824,0.037-1.175,0.173c-0.351,0.136-0.655,0.329-0.911,0.58c-0.256,0.251-0.455,0.55-0.595,0.896
		c-0.14,0.346-0.211,0.726-0.211,1.138v4.143h-0.949v-7.773C107.083,135.757,107.956,135.757,107.956,135.757z"/>
	<path fill="#4D4D4D" d="M113.289,136.555v6.976h-0.949v-6.976h-1.326v-0.798h1.326v-0.708c0-0.332,0.025-0.638,0.076-0.919
		c0.05-0.281,0.145-0.522,0.286-0.724c0.141-0.201,0.333-0.356,0.58-0.467c0.246-0.11,0.56-0.166,0.941-0.166
		c0.141,0,0.271,0.005,0.392,0.016c0.121,0.01,0.256,0.024,0.407,0.045v0.813c-0.13-0.021-0.251-0.038-0.361-0.053
		c-0.111-0.016-0.221-0.022-0.332-0.022c-0.261,0-0.462,0.04-0.603,0.12c-0.141,0.081-0.244,0.188-0.309,0.324
		c-0.065,0.136-0.103,0.294-0.113,0.475s-0.015,0.376-0.015,0.587v0.679h1.537v0.798
		C114.826,136.555,113.289,136.555,113.289,136.555z"/>
	<path fill="#4D4D4D" d="M115.925,136.962c0.161-0.332,0.379-0.603,0.655-0.813c0.276-0.211,0.6-0.367,0.972-0.467
		c0.371-0.101,0.783-0.151,1.235-0.151c0.341,0,0.683,0.033,1.024,0.099c0.341,0.065,0.647,0.188,0.919,0.369
		c0.271,0.181,0.492,0.434,0.663,0.761c0.171,0.326,0.256,0.751,0.256,1.272v4.128c0,0.382,0.186,0.572,0.557,0.572
		c0.111,0,0.21-0.02,0.301-0.06v0.798c-0.11,0.021-0.209,0.035-0.293,0.046c-0.085,0.01-0.193,0.015-0.324,0.015
		c-0.241,0-0.434-0.032-0.58-0.098c-0.146-0.065-0.259-0.158-0.339-0.279c-0.08-0.12-0.133-0.264-0.158-0.429
		c-0.025-0.166-0.038-0.35-0.038-0.55h-0.03c-0.171,0.251-0.344,0.475-0.52,0.67c-0.176,0.196-0.372,0.359-0.587,0.489
		c-0.216,0.131-0.462,0.231-0.738,0.302c-0.276,0.07-0.605,0.105-0.987,0.105c-0.361,0-0.701-0.043-1.017-0.128
		c-0.316-0.085-0.592-0.221-0.829-0.407c-0.236-0.186-0.421-0.422-0.557-0.708c-0.136-0.286-0.204-0.625-0.204-1.017
		c0-0.542,0.121-0.967,0.362-1.273s0.56-0.539,0.957-0.7c0.396-0.16,0.844-0.273,1.341-0.339s1.002-0.128,1.514-0.188
		c0.201-0.02,0.376-0.045,0.527-0.075c0.15-0.03,0.276-0.083,0.376-0.158s0.178-0.179,0.233-0.309
		c0.055-0.131,0.083-0.302,0.083-0.513c0-0.321-0.053-0.585-0.158-0.791c-0.105-0.205-0.251-0.369-0.437-0.489
		c-0.186-0.121-0.402-0.203-0.647-0.249c-0.247-0.045-0.51-0.067-0.791-0.067c-0.603,0-1.095,0.143-1.477,0.43
		c-0.382,0.286-0.583,0.745-0.603,1.378h-0.949C115.669,137.685,115.764,137.293,115.925,136.962z M120.671,139.283
		c-0.06,0.11-0.176,0.19-0.346,0.24c-0.171,0.051-0.322,0.086-0.452,0.105c-0.402,0.07-0.816,0.134-1.243,0.188
		c-0.427,0.056-0.816,0.139-1.168,0.249s-0.64,0.269-0.866,0.475c-0.226,0.206-0.339,0.499-0.339,0.881
		c0,0.241,0.048,0.455,0.143,0.641c0.095,0.186,0.224,0.347,0.384,0.482c0.161,0.135,0.347,0.238,0.558,0.309
		s0.427,0.105,0.647,0.105c0.362,0,0.708-0.056,1.04-0.166s0.62-0.271,0.866-0.482s0.442-0.467,0.588-0.768
		c0.146-0.302,0.218-0.643,0.218-1.024v-1.235H120.671z"/>
	<path fill="#4D4D4D" d="M128.308,136.826c-0.352-0.331-0.844-0.497-1.477-0.497c-0.451,0-0.849,0.096-1.189,0.286
		c-0.342,0.191-0.626,0.442-0.852,0.753c-0.226,0.312-0.396,0.666-0.512,1.062c-0.116,0.396-0.174,0.801-0.174,1.213
		c0,0.412,0.058,0.816,0.174,1.213c0.115,0.396,0.286,0.751,0.512,1.062c0.226,0.312,0.51,0.562,0.852,0.754
		c0.341,0.19,0.738,0.286,1.189,0.286c0.292,0,0.567-0.056,0.829-0.166c0.261-0.11,0.492-0.264,0.693-0.459
		c0.2-0.196,0.366-0.43,0.497-0.701c0.13-0.271,0.211-0.567,0.24-0.889h0.949c-0.13,0.944-0.477,1.68-1.039,2.207
		c-0.562,0.527-1.286,0.791-2.17,0.791c-0.593,0-1.117-0.108-1.574-0.324c-0.457-0.216-0.841-0.51-1.152-0.881
		c-0.312-0.372-0.548-0.807-0.708-1.304c-0.161-0.497-0.241-1.026-0.241-1.589c0-0.563,0.08-1.093,0.241-1.59
		c0.16-0.497,0.396-0.932,0.708-1.303c0.312-0.372,0.695-0.668,1.152-0.889c0.457-0.221,0.981-0.332,1.574-0.332
		c0.834,0,1.539,0.222,2.117,0.663c0.577,0.442,0.921,1.11,1.032,2.004h-0.949C128.901,137.616,128.66,137.158,128.308,136.826z"/>
	<path fill="#4D4D4D" d="M132.331,132.774v1.521h-0.949v-1.521H132.331z M132.331,135.757v7.773h-0.949v-7.773H132.331z"/>
	<path fill="#4D4D4D" d="M135.088,135.757v1.341h0.03c0.181-0.473,0.502-0.852,0.965-1.138c0.461-0.286,0.969-0.43,1.521-0.43
		c0.542,0,0.996,0.07,1.363,0.211c0.366,0.141,0.66,0.339,0.881,0.596c0.221,0.256,0.377,0.569,0.467,0.941
		c0.091,0.371,0.136,0.788,0.136,1.25v5.002h-0.949v-4.85c0-0.332-0.029-0.641-0.09-0.927c-0.061-0.286-0.166-0.535-0.316-0.746
		s-0.354-0.377-0.61-0.497c-0.256-0.12-0.575-0.181-0.956-0.181c-0.382,0-0.722,0.067-1.018,0.203s-0.547,0.321-0.753,0.558
		c-0.206,0.237-0.367,0.518-0.482,0.844s-0.179,0.681-0.188,1.062v4.535h-0.949v-7.773L135.088,135.757L135.088,135.757z"/>
	<path fill="#4D4D4D" d="M148.624,144.45c-0.126,0.462-0.323,0.854-0.595,1.175c-0.272,0.321-0.625,0.567-1.062,0.738
		c-0.437,0.171-0.972,0.257-1.604,0.257c-0.392,0-0.773-0.046-1.145-0.136c-0.372-0.091-0.706-0.231-1.002-0.422
		c-0.297-0.191-0.542-0.435-0.738-0.73c-0.196-0.297-0.309-0.65-0.339-1.062h0.949c0.05,0.291,0.147,0.535,0.294,0.73
		c0.146,0.196,0.321,0.354,0.527,0.475c0.205,0.12,0.434,0.208,0.685,0.264c0.251,0.055,0.508,0.083,0.769,0.083
		c0.884,0,1.521-0.251,1.913-0.753c0.393-0.503,0.588-1.226,0.588-2.17v-1.055h-0.03c-0.221,0.482-0.545,0.869-0.972,1.16
		s-0.927,0.437-1.499,0.437c-0.623,0-1.155-0.103-1.597-0.309c-0.442-0.205-0.806-0.489-1.092-0.851
		c-0.287-0.362-0.495-0.786-0.626-1.273c-0.13-0.487-0.195-1.007-0.195-1.56c0-0.532,0.077-1.037,0.233-1.514
		c0.155-0.477,0.382-0.894,0.678-1.251c0.296-0.356,0.663-0.638,1.1-0.843c0.438-0.206,0.937-0.31,1.499-0.31
		c0.291,0,0.565,0.04,0.821,0.121c0.256,0.08,0.489,0.193,0.7,0.339s0.399,0.313,0.565,0.505c0.166,0.19,0.294,0.392,0.384,0.603
		h0.03v-1.341h0.949v7.141C148.812,143.47,148.75,143.988,148.624,144.45z M146.447,142.378c0.312-0.176,0.572-0.407,0.783-0.693
		c0.211-0.286,0.369-0.615,0.475-0.986c0.105-0.372,0.158-0.754,0.158-1.146c0-0.381-0.045-0.763-0.136-1.145
		c-0.09-0.382-0.235-0.729-0.437-1.04c-0.201-0.311-0.46-0.562-0.776-0.753c-0.316-0.19-0.7-0.286-1.152-0.286
		s-0.839,0.093-1.16,0.278c-0.321,0.187-0.587,0.43-0.798,0.731c-0.211,0.301-0.364,0.645-0.46,1.031s-0.143,0.781-0.143,1.183
		c0,0.392,0.05,0.773,0.15,1.146c0.101,0.371,0.256,0.7,0.467,0.986c0.211,0.286,0.478,0.518,0.799,0.693s0.703,0.264,1.145,0.264
		C145.774,142.642,146.136,142.554,146.447,142.378z"/>
	<path fill="#4D4D4D" d="M156.12,132.774l6.267,9.1h0.03v-9.1h1.024v10.757h-1.145l-6.268-9.1h-0.03v9.1h-1.024v-10.757H156.12z"/>
	<path fill="#4D4D4D" d="M166.115,140.962c0.096,0.366,0.249,0.695,0.46,0.986c0.211,0.292,0.477,0.532,0.798,0.724
		c0.321,0.19,0.708,0.286,1.16,0.286c0.693,0,1.235-0.181,1.627-0.543c0.392-0.361,0.663-0.844,0.813-1.446h0.949
		c-0.201,0.885-0.569,1.567-1.107,2.049c-0.537,0.482-1.298,0.724-2.282,0.724c-0.612,0-1.143-0.108-1.589-0.324
		c-0.447-0.216-0.812-0.512-1.093-0.889s-0.489-0.813-0.625-1.311c-0.136-0.498-0.203-1.021-0.203-1.574
		c0-0.513,0.067-1.015,0.203-1.507s0.344-0.932,0.625-1.318s0.646-0.697,1.093-0.934c0.446-0.236,0.977-0.354,1.589-0.354
		c0.623,0,1.155,0.126,1.598,0.377c0.441,0.251,0.801,0.58,1.077,0.986c0.275,0.407,0.474,0.874,0.595,1.401
		c0.12,0.527,0.171,1.062,0.15,1.604h-5.98C165.972,140.242,166.019,140.595,166.115,140.962z M170.815,138.062
		c-0.115-0.331-0.278-0.625-0.489-0.881c-0.211-0.257-0.467-0.462-0.769-0.618c-0.301-0.155-0.643-0.233-1.024-0.233
		c-0.392,0-0.738,0.078-1.039,0.233c-0.302,0.156-0.558,0.361-0.769,0.618c-0.211,0.256-0.379,0.552-0.505,0.889
		c-0.126,0.336-0.208,0.681-0.248,1.031h5.031C170.994,138.74,170.931,138.393,170.815,138.062z"/>
	<path fill="#4D4D4D" d="M173.46,135.757l1.988,6.658h0.03l1.898-6.658h1.069l1.898,6.658h0.03l1.988-6.658h1.01l-2.501,7.773h-1.04
		l-1.913-6.538h-0.03l-1.897,6.538h-1.04l-2.501-7.773H173.46z"/>
	<path fill="#4D4D4D" d="M190.242,132.774l3.571,9.431l3.706-9.431h1.506v10.757h-1.024v-9.295h-0.03l-3.676,9.295h-0.964
		l-3.54-9.295h-0.03v9.295h-1.024v-10.757H190.242z"/>
	<path fill="#4D4D4D" d="M201.654,140.962c0.096,0.366,0.249,0.695,0.46,0.986c0.211,0.292,0.477,0.532,0.798,0.724
		c0.321,0.19,0.708,0.286,1.16,0.286c0.693,0,1.235-0.181,1.627-0.543c0.392-0.361,0.663-0.844,0.813-1.446h0.949
		c-0.201,0.885-0.569,1.567-1.107,2.049c-0.537,0.482-1.298,0.724-2.282,0.724c-0.612,0-1.143-0.108-1.589-0.324
		c-0.447-0.216-0.812-0.512-1.093-0.889s-0.489-0.813-0.625-1.311c-0.136-0.498-0.203-1.021-0.203-1.574
		c0-0.513,0.067-1.015,0.203-1.507s0.344-0.932,0.625-1.318s0.646-0.697,1.093-0.934c0.446-0.236,0.977-0.354,1.589-0.354
		c0.623,0,1.155,0.126,1.598,0.377c0.441,0.251,0.801,0.58,1.077,0.986c0.275,0.407,0.474,0.874,0.595,1.401
		c0.12,0.527,0.171,1.062,0.15,1.604h-5.98C201.512,140.242,201.558,140.595,201.654,140.962z M206.354,138.062
		c-0.115-0.331-0.278-0.625-0.489-0.881c-0.211-0.257-0.467-0.462-0.769-0.618c-0.301-0.155-0.643-0.233-1.024-0.233
		c-0.392,0-0.738,0.078-1.039,0.233c-0.302,0.156-0.558,0.361-0.769,0.618c-0.211,0.256-0.379,0.552-0.505,0.889
		c-0.126,0.336-0.208,0.681-0.248,1.031h5.031C206.533,138.74,206.471,138.393,206.354,138.062z"/>
	<path fill="#4D4D4D" d="M214.738,143.531v-1.477h-0.029c-0.101,0.251-0.249,0.482-0.445,0.693c-0.195,0.211-0.419,0.389-0.67,0.534
		c-0.251,0.146-0.52,0.259-0.806,0.34c-0.286,0.08-0.57,0.12-0.852,0.12c-0.593,0-1.107-0.108-1.544-0.324
		c-0.438-0.216-0.802-0.512-1.093-0.889s-0.507-0.813-0.647-1.311c-0.14-0.498-0.211-1.021-0.211-1.574s0.07-1.077,0.211-1.574
		s0.356-0.935,0.647-1.311c0.291-0.377,0.655-0.676,1.093-0.896c0.437-0.221,0.951-0.332,1.544-0.332
		c0.291,0,0.575,0.035,0.852,0.105c0.275,0.07,0.534,0.179,0.775,0.324c0.241,0.145,0.454,0.324,0.641,0.535
		c0.186,0.211,0.329,0.457,0.429,0.738h0.03v-4.46h0.949v10.757h-0.874V143.531z M209.533,140.841
		c0.096,0.397,0.246,0.751,0.452,1.062c0.206,0.311,0.47,0.564,0.791,0.761c0.321,0.195,0.708,0.294,1.16,0.294
		c0.502,0,0.927-0.099,1.273-0.294c0.346-0.196,0.627-0.449,0.844-0.761c0.216-0.312,0.371-0.665,0.467-1.062
		c0.095-0.396,0.143-0.796,0.143-1.197s-0.048-0.801-0.143-1.198c-0.096-0.396-0.251-0.75-0.467-1.062
		c-0.217-0.312-0.498-0.565-0.844-0.761c-0.347-0.196-0.771-0.294-1.273-0.294c-0.452,0-0.839,0.098-1.16,0.294
		c-0.321,0.195-0.585,0.449-0.791,0.761c-0.206,0.312-0.356,0.665-0.452,1.062c-0.095,0.397-0.143,0.797-0.143,1.198
		S209.438,140.445,209.533,140.841z"/>
	<path fill="#4D4D4D" d="M218.385,132.774v1.521h-0.949v-1.521H218.385z M218.385,135.757v7.773h-0.949v-7.773H218.385z"/>
	<path fill="#4D4D4D" d="M220.402,136.962c0.161-0.332,0.38-0.603,0.655-0.813c0.276-0.211,0.601-0.367,0.973-0.467
		c0.371-0.101,0.783-0.151,1.235-0.151c0.341,0,0.683,0.033,1.024,0.099c0.341,0.065,0.647,0.188,0.919,0.369
		c0.271,0.181,0.491,0.434,0.662,0.761c0.171,0.326,0.257,0.751,0.257,1.272v4.128c0,0.382,0.186,0.572,0.557,0.572
		c0.111,0,0.211-0.02,0.302-0.06v0.798c-0.11,0.021-0.209,0.035-0.294,0.046c-0.085,0.01-0.193,0.015-0.324,0.015
		c-0.24,0-0.434-0.032-0.579-0.098c-0.146-0.065-0.259-0.158-0.34-0.279c-0.08-0.12-0.133-0.264-0.158-0.429
		c-0.024-0.166-0.037-0.35-0.037-0.55h-0.03c-0.171,0.251-0.344,0.475-0.52,0.67c-0.176,0.196-0.372,0.359-0.588,0.489
		c-0.216,0.131-0.462,0.231-0.738,0.302s-0.604,0.105-0.986,0.105c-0.361,0-0.701-0.043-1.018-0.128
		c-0.317-0.085-0.592-0.221-0.828-0.407c-0.236-0.186-0.422-0.422-0.558-0.708c-0.136-0.286-0.203-0.625-0.203-1.017
		c0-0.542,0.12-0.967,0.361-1.273s0.56-0.539,0.957-0.7c0.396-0.16,0.844-0.273,1.341-0.339s1.002-0.128,1.514-0.188
		c0.201-0.02,0.377-0.045,0.527-0.075s0.276-0.083,0.377-0.158c0.1-0.075,0.178-0.179,0.233-0.309
		c0.055-0.131,0.083-0.302,0.083-0.513c0-0.321-0.053-0.585-0.158-0.791c-0.105-0.205-0.251-0.369-0.438-0.489
		c-0.186-0.121-0.401-0.203-0.647-0.249c-0.246-0.045-0.51-0.067-0.791-0.067c-0.603,0-1.095,0.143-1.477,0.43
		c-0.382,0.286-0.582,0.745-0.603,1.378h-0.949C220.146,137.685,220.242,137.293,220.402,136.962z M225.148,139.283
		c-0.061,0.11-0.176,0.19-0.347,0.24c-0.171,0.051-0.321,0.086-0.452,0.105c-0.401,0.07-0.815,0.134-1.242,0.188
		c-0.428,0.056-0.816,0.139-1.168,0.249s-0.641,0.269-0.866,0.475c-0.225,0.206-0.339,0.499-0.339,0.881
		c0,0.241,0.048,0.455,0.143,0.641c0.096,0.186,0.224,0.347,0.385,0.482c0.16,0.135,0.347,0.238,0.558,0.309
		s0.427,0.105,0.647,0.105c0.361,0,0.708-0.056,1.039-0.166c0.332-0.11,0.62-0.271,0.866-0.482s0.442-0.467,0.588-0.768
		c0.146-0.302,0.219-0.643,0.219-1.024v-1.235H225.148z"/>
</g>
<g>
	<path fill="#CC2121" d="M294.264,35.824h-10.608V69.13h-5.846V35.824h-10.635V30.56h27.089L294.264,35.824L294.264,35.824z"/>
	<path fill="#CC2121" d="M313.328,43.959l-4.18,4.166c-0.635-0.652-1.243-1.12-1.825-1.402c-0.582-0.282-1.341-0.423-2.275-0.423
		c-0.988,0-1.9,0.255-2.738,0.766c-0.838,0.511-1.504,1.229-1.997,2.154c-0.494,0.925-0.741,2.004-0.741,3.237V69.13h-5.529V41.67
		h5.423v2.981c0.723-1.01,1.742-1.817,3.056-2.42c1.313-0.603,2.729-0.904,4.246-0.904c1.358,0,2.553,0.2,3.585,0.598
		C311.383,42.323,312.375,43.002,313.328,43.959z"/>
	<path fill="#CC2121" d="M320.803,36.247h-5.846V30.4h5.846V36.247z M320.644,69.13h-5.529V41.67h5.529V69.13z"/>
	<path fill="#CC2121" d="M349.205,55.373c0,1.729-0.071,3.263-0.212,4.603c-0.141,1.341-0.446,2.637-0.913,3.889
		c-0.468,1.252-1.124,2.302-1.971,3.148c-0.759,0.759-1.72,1.354-2.884,1.786s-2.425,0.648-3.783,0.648
		c-1.517,0-2.862-0.243-4.034-0.728c-1.173-0.485-2.227-1.283-3.161-2.394V80.24h-5.529V41.67h5.423v2.927
		c1.006-1.224,2.077-2.074,3.214-2.553c1.138-0.479,2.482-0.718,4.035-0.718c1.376,0,2.659,0.221,3.849,0.662
		s2.147,1.041,2.87,1.799c0.847,0.846,1.503,1.891,1.971,3.135c0.467,1.244,0.771,2.531,0.913,3.862
		C349.134,52.115,349.205,53.645,349.205,55.373z M343.676,55.387c0-1.867-0.141-3.456-0.423-4.768
		c-0.283-1.312-0.842-2.36-1.68-3.144c-0.838-0.784-2.033-1.175-3.585-1.175c-1.57,0-2.778,0.396-3.624,1.189
		c-0.846,0.793-1.411,1.841-1.693,3.144c-0.282,1.303-0.423,2.888-0.423,4.755c0,1.867,0.141,3.456,0.423,4.768
		c0.282,1.312,0.847,2.369,1.693,3.17c0.846,0.802,2.054,1.202,3.624,1.202c2.257,0,3.77-0.805,4.537-2.417
		C343.292,60.498,343.676,58.257,343.676,55.387z"/>
	<path fill="#CC2121" d="M364.749,69.13h-3.413c-2.486,0-4.361-0.718-5.621-2.156c-1.261-1.437-1.891-3.249-1.891-5.436V30.559
		h5.529v30.66c0,1.094,0.22,1.901,0.662,2.421c0.44,0.521,1.208,0.781,2.301,0.781h2.434L364.749,69.13L364.749,69.13z"/>
	<path fill="#CC2121" d="M390.003,56.987h-17.83c0,1.605,0.273,2.976,0.82,4.113c0.546,1.138,1.336,2.02,2.367,2.646
		c1.032,0.626,2.306,0.939,3.823,0.939s2.743-0.212,3.677-0.635s1.931-1.146,2.99-2.169l3.518,3.28
		c-1.501,1.499-3.019,2.588-4.556,3.267c-1.536,0.679-3.452,1.019-5.747,1.019c-1.766,0-3.403-0.256-4.913-0.767
		c-1.51-0.511-2.821-1.323-3.933-2.434c-1.113-1.111-1.978-2.566-2.596-4.365s-0.927-3.968-0.927-6.508
		c0-2.945,0.481-5.467,1.444-7.566c0.962-2.098,2.317-3.704,4.065-4.814c1.748-1.111,3.796-1.667,6.145-1.667
		c2.401,0,4.484,0.556,6.25,1.667c1.765,1.111,3.107,2.668,4.026,4.669c0.918,2.002,1.377,4.299,1.377,6.891V56.987z
		 M384.527,53.151c-0.053-1.428-0.3-2.672-0.741-3.73s-1.133-1.905-2.077-2.54s-2.059-0.952-3.347-0.952
		c-1.27,0-2.386,0.317-3.347,0.952c-0.961,0.635-1.671,1.481-2.129,2.54c-0.247,0.565-0.41,1.063-0.489,1.495
		s-0.154,1.177-0.225,2.235H384.527z"/>
	<path fill="#CC2121" d="M411.436,69.13h-5.899V30.56h5.899V69.13z"/>
	<path fill="#CC2121" d="M442.456,35.824h-10.608V69.13h-5.846V35.824h-10.634V30.56h27.089L442.456,35.824L442.456,35.824z"/>
</g>
<polygon fill="none" points="534.864,68.905 534.864,60.276 526.285,68.905 "/>
</svg>
